<?xml version="1.0" encoding="UTF-8"?>
<svg width="12px" height="12px" viewBox="0 0 12 12" version="1.1" xmlns="http://www.w3.org/2000/svg" xmlns:xlink="http://www.w3.org/1999/xlink">
    <!-- Generator: sketchtool 59.1 (101010) - https://sketch.com -->
    <title>DD9F60B5-48CD-40E6-B70C-16B8346F7989</title>
    <desc>Created with sketchtool.</desc>
    <g id="Homepage-v4" stroke="none" stroke-width="1" fill="none" fill-rule="evenodd">
        <g id="Homepage-Overhaul-[02-Desktop-Min]---01-Default" transform="translate(-230.000000, -25.000000)" fill="#FFFFFF" fill-rule="nonzero">
            <g id="Nav-Bar">
                <g id="Phone" transform="translate(230.000000, 19.000000)">
                    <path d="M2.41333333,11.1933333 C3.37333333,13.08 4.92,14.62 6.80666667,15.5866667 L8.27333333,14.12 C8.45333333,13.94 8.72,13.88 8.95333333,13.96 C9.7,14.2066667 10.5066667,14.34 11.3333333,14.34 C11.7,14.34 12,14.64 12,15.0066667 L12,17.3333333 C12,17.7 11.7,18 11.3333333,18 C5.07333333,18 0,12.9266667 0,6.66666667 C0,6.3 0.3,6 0.666666667,6 L3,6 C3.36666667,6 3.66666667,6.3 3.66666667,6.66666667 C3.66666667,7.5 3.8,8.3 4.04666667,9.04666667 C4.12,9.28 4.06666667,9.54 3.88,9.72666667 L2.41333333,11.1933333 Z" id="Path"></path>
                </g>
            </g>
        </g>
    </g>
</svg>